<?xml version="1.0" encoding="UTF-8" standalone="no"?>
<!DOCTYPE svg PUBLIC "-//W3C//DTD SVG 1.1//EN" "http://www.w3.org/Graphics/SVG/1.1/DTD/svg11.dtd">
<svg version="1.1" xmlns="http://www.w3.org/2000/svg" xmlns:xlink="http://www.w3.org/1999/xlink" preserveAspectRatio="xMidYMid meet" viewBox="53.68613138686125 75.21897810218968 499.05109489051085 406.35036496350364" width="489.05" height="396.35"><defs><path d="M58.69 93.36L58.69 133.5L68.91 150.29C66.47 170.73 64.28 186.3 62.34 197.01C60.39 207.71 62.58 214.53 68.91 217.45L62.34 237.15L76.2 237.15L62.34 298.47L76.2 322.55L62.34 343.72L74.01 384.6L82.04 432.04L62.34 444.45L62.34 471.46L101.02 476.57L109.05 463.43L171.09 476.57L189.34 461.24L241.17 461.24L317.08 468.54L337.52 459.05L387.15 459.05L438.98 459.05L486.42 468.54L536.06 468.54L540.44 432.04L536.06 391.9L547.74 353.94L536.06 318.18L536.06 259.05L543.36 206.5L543.36 153.94L536.06 133.5L547.74 97.01L510.51 98.47L470.36 81.68L438.98 101.39L405.4 86.06L350.66 88.25L286.42 88.25L245.55 93.36L216.35 80.22L162.34 86.06L109.05 91.17L101.02 83.87L89.34 80.22L58.69 86.06L58.69 93.36Z" id="e3DIpEVp0m"></path></defs><g><g><use xlink:href="#e3DIpEVp0m" opacity="1" fill="#65a2af" fill-opacity="0"></use><g><use xlink:href="#e3DIpEVp0m" opacity="1" fill-opacity="0" stroke="#8e4ce3" stroke-width="10" stroke-opacity="1"></use></g></g></g></svg>