<?xml version="1.0" encoding="UTF-8" standalone="no"?>
<!DOCTYPE svg PUBLIC "-//W3C//DTD SVG 1.1//EN" "http://www.w3.org/Graphics/SVG/1.1/DTD/svg11.dtd">
<svg version="1.1" xmlns="http://www.w3.org/2000/svg" xmlns:xlink="http://www.w3.org/1999/xlink" preserveAspectRatio="xMidYMid meet" viewBox="1.206662116041052 -0.12636177474392696 491.1607270704664 1207.6948740886378" width="481.16" height="1197.69"><defs><path d="M6.21 165.88C12.18 196.32 15.5 213.23 16.17 216.61C13.79 278.38 11.65 325.43 9.76 357.79C7.86 390.12 10 410.73 16.17 419.56C15.74 423.53 13.61 443.37 9.76 479.09L23.27 479.09L9.76 664.38L23.27 737.15L9.76 801.12L21.14 924.65L28.96 1068.01L9.76 1105.51L9.76 1187.13L47.46 1202.57L55.28 1162.86L115.74 1202.57L133.53 1156.24L184.04 1156.24L258.02 1178.3L277.93 1149.63L326.3 1149.63L376.81 1149.63L423.04 1178.3L471.42 1178.3L475.69 1068.01L471.42 946.71L482.8 832L471.42 723.94L487.37 617.67L471.42 545.26L482.8 479.09L478.53 386.47L478.53 317.24L487.37 232.06L471.42 165.88L482.8 55.61L446.52 60.02L407.39 9.29L376.81 68.85L344.09 22.52L290.74 29.14L228.14 29.14L188.31 44.58L159.85 4.87L107.22 22.52L55.28 37.96L47.46 15.9L36.08 4.87L6.21 22.52L6.21 44.58L6.21 165.88Z" id="b2njjN72KL"></path></defs><g><g><use xlink:href="#b2njjN72KL" opacity="1" fill="#000000" fill-opacity="0"></use><g><use xlink:href="#b2njjN72KL" opacity="1" fill-opacity="0" stroke="#8e4ce3" stroke-width="5" stroke-opacity="1"></use></g></g></g></svg>